M48
VER,1
FMAT,2
METRIC,TZ
ICI,OFF
DETECT,ON
ATC,ON
T1C.3
T2C.9
T3C1.1
T4C1.2
%
T1
X25500Y60700
X28700Y59325
X27100Y59325
X30300Y59325
X27100Y60700
X28700Y60700
X30300Y60700
X25500Y59325
X27500Y13600
X24900Y13600
X22400Y13600
X19800Y13600
X17300Y13600
X14800Y13600
X12200Y13600
X9700Y13600
X73600Y13600
X76200Y13600
X78700Y13600
X81300Y13600
X83800Y13600
X86400Y13600
X88900Y13600
X91300Y13600
X27500Y79100
X24900Y79100
X22400Y79100
X19800Y79100
X17300Y79100
X14800Y79100
X12300Y79100
X9700Y79100
X73700Y79100
X76200Y79100
X78700Y79100
X81300Y79100
X83800Y79100
X86400Y79100
X89000Y79100
X91400Y79100
X6830Y106950
X10503Y106950
X14200Y106950
X17900Y106950
X40300Y106950
X44000Y106950
X47700Y106950
X51400Y106950
X70700Y106950
X74400Y106950
X78100Y106950
X81800Y106950
X115300Y106950
X111600Y106950
X107900Y106950
X104200Y106950
X17800Y46450
X14100Y46450
X10400Y46450
X6700Y46450
X80700Y46450
X77100Y46450
X73400Y46450
X69700Y46450
X105500Y43650
X109200Y43650
X112900Y43650
X116600Y43650
X52400Y40394
X48700Y40394
X45000Y40394
X41300Y40394
X60965Y90900
X19900Y104800
X22400Y104800
X25000Y104800
X27600Y104800
X30100Y104800
X32700Y104800
X35100Y104800
X37700Y104800
X19800Y43500
X22300Y43500
X24900Y43500
X27500Y43500
X30000Y43500
X32600Y43500
X35200Y43500
X37800Y43509
X30000Y79100
X32600Y79100
X35100Y79100
X37700Y79100
X40200Y79100
X42700Y79100
X45300Y79100
X47800Y79100
X30000Y13600
X32600Y13600
X35100Y13600
X37600Y13600
X40200Y13600
X42700Y13600
X45300Y13600
X47800Y13600
X94000Y79100
X96500Y79100
X99100Y79100
X101600Y79100
X104200Y79100
X106700Y79100
X109200Y79100
X111800Y79100
X94000Y13600
X96500Y13575
X99100Y13600
X101600Y13600
X104100Y13600
X106700Y13600
X109200Y13600
X111700Y13600
X83800Y43500
X86400Y43500
X88900Y43500
X91400Y43500
X94000Y43500
X96500Y43500
X99000Y43500
X101600Y43500
X83800Y104800
X86300Y104800
X88900Y104800
X91500Y104800
X94000Y104800
X96500Y104800
X99000Y104800
X101600Y104800
X55900Y106700
X55900Y105300
X55900Y103900
X56700Y106000
X56700Y104600
X56700Y103200
X55900Y102500
X56700Y101800
X56600Y107400
X57300Y108200
X58000Y107400
X58700Y108200
X59400Y107400
X60100Y108200
X60800Y107400
X61500Y108200
X70200Y97600
X68100Y96800
X70800Y96800
X71500Y96000
X67400Y97600
X68800Y96000
X55159Y35728
X54159Y35970
X55594Y36769
X92107Y30882
X51402Y92515
X46142Y93917
X46849Y95974
X45436Y93117
X50899Y95896
X50177Y95189
X49471Y94451
X48733Y93666
X48293Y92709
X46205Y39044
X49848Y39044
X42400Y39044
X76800Y42400
X78400Y43875
X79100Y43125
X77700Y43100
X75000Y39700
X76000Y38700
X75000Y38700
X76000Y37700
X43114Y34491
X46308Y32898
X45038Y33365
X43768Y33436
X46308Y24420
X45038Y23705
X43768Y23310
X42498Y22903
X47578Y25097
X48848Y24383
X50118Y23958
X50658Y22778
X55442Y89142
X56193Y88431
X55448Y87714
X52536Y85110
X53501Y84734
X54527Y84271
X59249Y85132
X59963Y84400
X60700Y83600
X61400Y82826
X63688Y29725
X59963Y25824
X60827Y26976
X62900Y27828
X70396Y23848
X80768Y34662
X81870Y36180
X80039Y35388
X64077Y30764
X64135Y32089
X64781Y32921
X64072Y33640
X64773Y34605
X65888Y34482
X66496Y20222
X65478Y22464
X73734Y33600
X75970Y34998
X74819Y34295
X70565Y28942
X70567Y27937
X57258Y19688
X58247Y18474
X65525Y14645
X53631Y18474
X49653Y22705
X3662Y50072
X39679Y36946
X52262Y37530
X53066Y39044
X53989Y44530
X67496Y42100
X107880Y36778
X7210Y99138
X66567Y115283
X66567Y106950
X108351Y99524
X95613Y93847
X94859Y99036
X31777Y95378
X30144Y93745
X16925Y94765
X18369Y94765
X26297Y26277
X61727Y34496
X61183Y42092
X68499Y32615
X61632Y29706
X62247Y30629
X61797Y31640
X69538Y18160
X56389Y32085
X62188Y35702
X85099Y33152
X82632Y34138
X87634Y33219
X90483Y33331
X89384Y38490
X84337Y38445
X97705Y35327
X100285Y35395
X104658Y35709
X97403Y41998
X100088Y42013
X113715Y39407
X113747Y37209
X118004Y42079
X119866Y40239
X117578Y47260
X116681Y53832
X114169Y46834
X119305Y54796
X116658Y57219
X113025Y76217
X110535Y76374
X108023Y76554
X105421Y76598
X98333Y80838
X97728Y87185
X100285Y87230
X102864Y87208
X105376Y87230
X107843Y87230
X110400Y87163
X113000Y87200
X92600Y87200
X90200Y87200
X85100Y87200
X87700Y87200
X82500Y87200
X80000Y87200
X77500Y87200
X74900Y87200
X72400Y87200
X74900Y80100
X76000Y83600
X77500Y80100
X79900Y83700
X79900Y80100
X82800Y80100
X85300Y83800
X90100Y83800
X93200Y80800
X90400Y81000
X88000Y80900
X85300Y80900
X25800Y30100
X28800Y33800
X9000Y41300
X13300Y36900
X10000Y49700
X13500Y49600
X16000Y50700
X18400Y49600
X18600Y42600
X26400Y42200
X28800Y42200
X22300Y38200
X24900Y40600
X51600Y18500
X50600Y19000
X42200Y19000
X46900Y22700
X40600Y25500
X36500Y19000
X27900Y19000
X24900Y21900
X18900Y27800
X16200Y30600
X14300Y32500
X13100Y33700
X11700Y35100
X7300Y39500
X2700Y43900
X1700Y50200
X21400Y42100
X23600Y41600
X21100Y34500
X25200Y38600
X28900Y47700
X80500Y39500
X104800Y23700
X102800Y22400
X100300Y22300
X97700Y22200
X107600Y26000
X107800Y35200
X23600Y50100
X45533Y43873
X49368Y43963
X52486Y46296
X54051Y73724
X41496Y77922
X44120Y78348
X46587Y78707
X38938Y77496
X36404Y77092
X33847Y76711
X31380Y76329
X29092Y75881
X12090Y83552
X8344Y86266
X17204Y83507
X16037Y87499
X10834Y90146
X13525Y89855
X18505Y87230
X22318Y83507
X21039Y87208
X26109Y87208
X28688Y87275
X27477Y83552
X30011Y84314
X32546Y83507
X31245Y87208
X33735Y87141
X31335Y89832
X29966Y91268
X37682Y82049
X36314Y87163
X38916Y87163
X41294Y87185
X43985Y87163
X46497Y87141
X49122Y87230
X43559Y91537
X43312Y97301
X33937Y99746
X31312Y99656
X28778Y99724
X28553Y95170
X25682Y94498
X22946Y94565
X20725Y94610
X19066Y95664
X16665Y92165
X12404Y97862
X14265Y98984
X6236Y97728
X8187Y97660
X21151Y100240
X11641Y105309
X15342Y105354
X8703Y103604
X9017Y100733
X6034Y111118
X9779Y110468
X13279Y110333
X15903Y111343
X18258Y110221
X18931Y105892
X21129Y105690
X23686Y105690
X26423Y105735
X28845Y105757
X31424Y105780
X33869Y105825
X36426Y105825
X38490Y111186
X41159Y110445
X43963Y110400
X46722Y111141
X49862Y111298
X54056Y109593
X59178Y110154
X63119Y113998
X68341Y113934
X67861Y107366
X73552Y97810
X81928Y97810
X56068Y90762
X58219Y85361
X66962Y90670
X72179Y79960
X61194Y74056
X61286Y56526
X71447Y56617
X61194Y54237
X71401Y54329
X87790Y69815
X92499Y94294
X90193Y94230
X87661Y94230
X84938Y94230
X81830Y91923
X97754Y94646
X100221Y94646
X104162Y94774
X106757Y92884
X109417Y98331
X110855Y100923
X100317Y106020
X97754Y106084
X95255Y106020
X92756Y106052
X90161Y106052
X87565Y106084
X85034Y106084
X82375Y104290
X82311Y110794
X79876Y111307
X77505Y110346
X73692Y110282
X102912Y110794
X105604Y111371
X108039Y111051
X110634Y111403
X113325Y111499
X113518Y115440
X113390Y117459
X119689Y119643
X119734Y99275
X66504Y117904
X1282Y119734
X24395Y119643
X48516Y119734
X7781Y115203
X1556Y99092
X1648Y83668
X8491Y57448
X9612Y63663
X13457Y9260
X8202Y9292
X1378Y1474
X18551Y9388
X23774Y9228
X23549Y1474
X28964Y9260
X33994Y9420
X38961Y9260
X44119Y9356
X49342Y9195
X44183Y1698
X66675Y5735
X61389Y6728
X64240Y13873
X71802Y17686
X71161Y14226
X77537Y9420
X72474Y9420
X72795Y1378
X81606Y18679
X82567Y9292
X87758Y9420
X92788Y9388
X91891Y18775
X97978Y9644
X102912Y9516
X95383Y1282
X108071Y9356
X113422Y9548
X119477Y1378
X91859Y26753
X73660Y32424
X73660Y27779
X77152Y37198
X65073Y37423
X63824Y43478
X65041Y46234
X71706Y42613
X70232Y30566
X69309Y23798
X71283Y32456
X72987Y35798
X68758Y36558
X70408Y36606
X78303Y34385
X54832Y26959
X65045Y18039
X67268Y25974
X68232Y26849
X82523Y30025
X40659Y33065
X36426Y35327
X33802Y35305
X31290Y35238
X36852Y28419
X75199Y119794
X98085Y119794
X119468Y77422
X119860Y21775
X1439Y23279
X1121Y43254
X5831Y38031
X10573Y33674
X48897Y79133
X70722Y94251
X62766Y106501
T2
X90375Y20441
X90375Y22981
X87835Y20441
X87835Y22981
X85295Y20441
X85295Y22981
X82755Y20441
X82755Y22981
X80215Y20441
X80215Y22981
X77675Y20441
X77675Y22981
X75135Y20441
X75135Y22981
X5270Y68120
X2730Y68120
X5270Y65580
X2730Y65580
X5270Y63040
X2730Y63040
X5270Y60500
X2730Y60500
X5270Y57960
X2730Y57960
X5270Y55420
X2730Y55420
X5270Y52880
X2730Y52880
T3
X63440Y100700
X60900Y100700
X58360Y100700
T4
X37710Y52600
X35170Y52600
X32630Y52600
X30090Y52600
X27550Y52600
X25010Y52600
X22470Y52600
X19930Y52600
X9730Y6860
X12270Y6860
X14810Y6860
X17350Y6860
X19890Y6860
X22430Y6860
X24970Y6860
X27510Y6860
X47830Y52580
X45290Y52580
X42750Y52580
X40210Y52580
X17350Y52580
X14810Y52580
X12270Y52580
X9730Y52580
X47805Y6872
X45265Y6872
X42725Y6872
X40185Y6872
X37645Y6872
X35105Y6872
X32565Y6872
X30025Y6872
X101610Y52600
X99070Y52600
X96530Y52600
X93990Y52600
X91450Y52600
X88910Y52600
X86370Y52600
X83830Y52600
X73690Y6880
X76230Y6880
X78770Y6880
X81310Y6880
X83850Y6880
X86390Y6880
X88930Y6880
X91470Y6880
X111790Y52600
X109250Y52600
X106710Y52600
X104170Y52600
X81310Y52600
X78770Y52600
X76230Y52600
X73690Y52600
X111810Y6878
X109270Y6878
X106730Y6878
X104190Y6878
X101650Y6878
X99110Y6878
X96570Y6878
X94030Y6878
X37670Y113100
X35130Y113100
X32590Y113100
X30050Y113100
X27510Y113100
X24970Y113100
X22430Y113100
X19890Y113100
X9730Y67380
X12270Y67380
X65540Y2100
X63000Y2100
X60460Y2100
X14810Y67380
X17350Y67380
X19890Y67380
X22430Y67380
X24970Y67380
X27510Y67380
X47830Y113100
X45290Y113100
X42750Y113100
X40210Y113100
X17350Y113100
X14810Y113100
X12270Y113100
X9730Y113100
X47810Y67400
X45270Y67400
X42730Y67400
X40190Y67400
X37650Y67400
X35110Y67400
X32570Y67400
X30030Y67400
X101610Y113100
X99070Y113100
X96530Y113100
X93990Y113100
X91450Y113100
X88910Y113100
X86370Y113100
X83830Y113100
X73690Y67380
X76230Y67380
X78770Y67380
X81310Y67380
X83850Y67380
X86390Y67380
X88930Y67380
X91470Y67380
X111790Y113100
X109250Y113100
X106710Y113100
X104170Y113100
X81310Y113100
X78770Y113100
X76230Y113100
X73690Y113100
X111810Y67400
X109270Y67400
X106730Y67400
X104190Y67400
X101650Y67400
X99110Y67400
X96570Y67400
X94030Y67400
M30
