M48
VER,1
FMAT,2
METRIC,TZ
ICI,OFF
DETECT,ON
ATC,ON
T1C.3
T2C.9
T3C1.
T4C1.2
T5C1.3
T6C3.
%
T1
X121467Y124392
X122223Y123578
X122985Y122788
X123748Y122025
X124524Y121263
X127916Y125208
X128503Y126042
X129108Y126849
X129693Y127676
X130238Y128523
X112988Y128167
X113722Y127475
X114471Y126798
X115262Y126148
X116038Y125499
X103860Y107116
X104580Y107836
X105243Y108585
X105963Y109305
X106626Y110054
X113022Y115418
X113610Y116263
X140800Y95080
X136900Y94058
X112013Y113713
X120825Y85627
X115240Y134937
X117055Y132771
X67300Y110169
X118400Y80158
X153120Y79372
X129609Y78612
X137489Y71475
X119175Y77875
X127079Y188006
X123919Y188006
X107509Y42109
X116281Y42109
X107936Y40915
X119100Y40915
X116300Y122800
X110000Y127900
X113800Y117600
X112000Y111200
X113900Y113200
X107400Y114300
X106000Y121500
X103600Y128800
X107400Y129900
X117500Y128200
X119300Y119100
X120700Y125400
X126200Y123700
X127500Y129700
X122400Y129500
X118600Y113100
X118000Y109000
X116200Y107000
X112000Y105100
X107600Y105200
X104000Y109600
X98600Y110600
X101500Y105200
X97500Y131700
X97500Y133800
X97500Y135800
X114000Y133800
X114500Y136700
X121700Y136900
X104200Y144400
X87500Y126400
X89700Y113400
X80900Y106000
X69600Y112600
X69600Y114200
X69500Y115900
X65100Y111700
X64500Y115300
X62600Y117600
X66900Y123100
X71500Y127500
X76200Y131500
X80000Y135100
X83200Y136100
X91400Y136100
X84200Y131200
X79500Y126700
X76600Y123400
X72700Y119800
X91700Y131200
X79700Y109000
X79700Y112900
X57900Y102800
X57700Y96700
X70100Y96300
X70000Y102900
X129700Y84900
X134000Y76200
X127800Y75200
X122500Y76600
X136800Y78000
X142200Y77500
X150500Y77500
X153100Y70600
X141300Y69400
X147600Y66400
X128800Y69800
X122700Y72600
X138400Y64900
X133100Y57000
X143300Y58100
X148300Y57600
X153000Y58200
X143400Y53800
X122900Y59200
X112600Y68400
X112600Y63200
X107000Y68200
X107400Y62900
X138900Y92100
X134700Y92200
X137300Y86400
X74400Y65200
X72600Y65000
X70800Y64900
X69400Y66600
X69600Y68700
X71600Y69300
X74000Y69300
X68700Y71400
X68700Y72600
X110200Y20800
X121900Y18800
X98000Y17300
X98700Y21300
X122500Y10600
X106700Y12900
X116100Y12300
X117700Y23400
X113200Y38000
X113200Y44600
X87200Y51600
X134000Y50700
X91600Y6400
X129600Y5900
X165200Y55400
X169200Y87000
X215500Y90700
X207600Y96700
X185000Y119200
X191100Y123000
X215100Y129700
X210400Y121700
X191400Y102800
X175500Y111600
X169100Y133800
X165800Y166100
X133800Y169700
X130200Y215600
X111200Y185100
X104900Y193700
X98300Y209400
X114900Y207800
X119100Y207800
X122300Y196800
X90700Y216000
X86800Y169300
X94200Y195200
X55100Y165800
X51600Y134200
X5600Y129900
X26200Y118200
X15900Y122200
X11000Y114400
X16300Y104500
X8200Y98500
X5100Y90400
X28300Y96800
X22300Y104000
X51700Y87000
X55300Y54900
T2
X98310Y128262
X100850Y128262
X98310Y125722
X100850Y125722
X98310Y123182
X100850Y123182
X98310Y120642
X100850Y120642
X98310Y118102
X100850Y118102
X98310Y115562
X100850Y115562
X98310Y113022
X100850Y113022
X52730Y118120
X55270Y118120
X52730Y115580
X55270Y115580
X52730Y113040
X55270Y113040
X52730Y110500
X55270Y110500
X52730Y107960
X55270Y107960
X52730Y105420
X55270Y105420
X52730Y102880
X55270Y102880
T3
X131670Y73490
X134210Y73490
X136750Y73490
X139290Y73490
X141830Y73490
X144370Y73490
X146910Y73490
X149450Y73490
X151990Y73490
X154530Y73490
X154530Y81110
X151990Y81110
X149450Y81110
X146910Y81110
X144370Y81110
X141830Y81110
X139290Y81110
X136750Y81110
X134210Y81110
X131670Y81110
T4
X112215Y65718
X114755Y65718
T5
X22400Y107200
X26900Y107200
X22400Y113700
X18900Y119200
X14400Y125700
X18900Y125700
X14400Y119200
X18900Y107200
X14400Y113700
X192600Y112700
X197100Y106200
X101600Y20600
X95100Y16100
X18900Y113700
X14400Y107200
X192600Y106200
X197100Y112700
X95100Y20600
X101600Y16100
X18900Y101700
X14400Y95200
X95600Y207600
X102100Y212100
X113600Y28600
X107100Y24100
X18900Y95200
X14400Y101700
X102100Y207600
X95600Y212100
X107100Y28600
X113600Y24100
X10900Y95200
X6400Y101700
X95600Y199600
X102100Y204100
X208600Y124700
X213100Y118200
X10900Y101700
X6400Y95200
X102100Y199600
X95600Y204100
X208600Y118200
X213100Y124700
X200600Y94200
X205100Y100700
X107100Y20600
X113600Y16100
X200600Y100700
X205100Y94200
X113600Y20600
X107100Y16100
X126100Y199600
X119600Y204100
X200600Y106200
X205100Y112700
X119100Y20600
X125600Y16100
X119600Y199600
X126100Y204100
X200600Y112700
X205100Y106200
X125600Y20600
X119100Y16100
X114100Y199600
X26900Y113700
X107600Y204100
X200600Y118200
X107600Y191600
X205100Y124700
X114100Y196100
X119100Y12600
X107600Y196100
X125600Y8100
X114100Y191600
X107600Y199600
X114100Y204100
X200600Y124700
X205100Y118200
X125600Y12600
X119100Y8100
T6
X69000Y59500
X69000Y53300
X74200Y56400
M30
